<?xml version="1.0" encoding="utf-8"?>
<!-- Generator: Adobe Illustrator 17.0.0, SVG Export Plug-In . SVG Version: 6.00 Build 0)  -->
<!DOCTYPE svg PUBLIC "-//W3C//DTD SVG 1.1//EN" "http://www.w3.org/Graphics/SVG/1.1/DTD/svg11.dtd">
<svg version="1.1" id="Layer_1" xmlns="http://www.w3.org/2000/svg" xmlns:xlink="http://www.w3.org/1999/xlink" x="0px" y="0px"
	 width="18px" height="18px" viewBox="0 0 18 18" enable-background="new 0 0 18 18" xml:space="preserve">
<rect display="none" fill="#D83535" width="18" height="18"/>
<g>
	<g>
		<path fill="#515251" d="M15.803,2.151H2.201C0.987,2.151,0,3.138,0,4.352v9.296c0,1.214,0.987,2.201,2.201,2.201h13.598
			c1.214,0,2.201-0.987,2.201-2.201V4.356C18.004,3.142,17.017,2.151,15.803,2.151z M16.998,13.648c0,0.659-0.536,1.196-1.196,1.196
			H2.201c-0.659,0-1.196-0.536-1.196-1.196V4.356c0-0.659,0.536-1.196,1.196-1.196h13.598c0.659,0,1.196,0.536,1.196,1.196v9.292
			H16.998z"/>
		<path fill="#515251" d="M11.352,8.885l4.402-3.948c0.205-0.186,0.223-0.503,0.037-0.711c-0.186-0.205-0.503-0.223-0.711-0.037
			L9.009,9.637L7.825,8.579C7.821,8.575,7.817,8.572,7.817,8.568C7.791,8.542,7.765,8.52,7.736,8.497L2.916,4.184
			C2.708,3.998,2.391,4.017,2.205,4.225S2.037,4.75,2.246,4.937L6.7,8.918l-4.436,4.153c-0.201,0.19-0.212,0.507-0.022,0.711
			c0.101,0.104,0.235,0.16,0.369,0.16c0.123,0,0.246-0.045,0.343-0.134l4.503-4.212l1.222,1.091
			c0.097,0.086,0.216,0.127,0.335,0.127s0.242-0.045,0.335-0.13l1.255-1.125l4.477,4.253c0.097,0.093,0.223,0.138,0.346,0.138
			c0.134,0,0.264-0.052,0.365-0.156c0.19-0.201,0.182-0.521-0.019-0.711L11.352,8.885z"/>
	</g>
</g>
</svg>
