<?xml version="1.0" encoding="utf-8"?>
<!-- Generator: Adobe Illustrator 17.0.0, SVG Export Plug-In . SVG Version: 6.00 Build 0)  -->
<!DOCTYPE svg PUBLIC "-//W3C//DTD SVG 1.1//EN" "http://www.w3.org/Graphics/SVG/1.1/DTD/svg11.dtd">
<svg version="1.1" id="Layer_1" xmlns="http://www.w3.org/2000/svg" xmlns:xlink="http://www.w3.org/1999/xlink" x="0px" y="0px"
	 width="18px" height="18px" viewBox="0 0 18 18" enable-background="new 0 0 18 18" xml:space="preserve">
<rect display="none" fill="#D83535" width="18" height="18"/>
<g>
	<g>
		<g>
			<path fill="#515251" d="M16.193,1.761c-0.892,0.267-1.854,0.388-2.932,0.388c-1.371,0-2.789-0.205-4.164-0.406
				c-1.419-0.205-2.888-0.42-4.354-0.42c-0.874,0-1.682,0.077-2.446,0.23V0.712c0-0.369-0.3-0.669-0.669-0.669
				S0.955,0.339,0.955,0.712v1.696v8.928v5.952c0,0.369,0.3,0.669,0.669,0.669s0.669-0.3,0.669-0.669v-5.436
				c0.757-0.175,1.561-0.26,2.446-0.26c1.371,0,2.789,0.205,4.164,0.406c1.419,0.205,2.888,0.42,4.354,0.42
				c1.206,0,2.289-0.143,3.305-0.439c0.285-0.084,0.483-0.347,0.483-0.643V2.405C17.019,1.758,16.427,1.692,16.193,1.761z
				 M15.707,10.813c-0.757,0.175-1.561,0.26-2.446,0.26c-1.371,0-2.789-0.205-4.164-0.406c-1.419-0.205-2.888-0.42-4.354-0.42
				c-0.874,0-1.682,0.077-2.446,0.23V2.924c0.757-0.175,1.561-0.26,2.446-0.26c1.371,0,2.789,0.205,4.164,0.406
				c1.418,0.205,2.888,0.42,4.354,0.42c0.874,0,1.682-0.077,2.446-0.23V10.813z"/>
			<path fill="#515251" d="M10.68,6.2H9.675V5.194c0-0.369-0.3-0.669-0.669-0.669s-0.669,0.3-0.669,0.669V6.2H7.331
				c-0.369,0-0.669,0.3-0.669,0.669c0,0.369,0.3,0.669,0.669,0.669h1.005v1.005c0,0.369,0.3,0.669,0.669,0.669
				s0.669-0.3,0.669-0.669V7.541h1.005c0.369,0,0.669-0.3,0.669-0.669C11.353,6.499,11.049,6.2,10.68,6.2z"/>
		</g>
	</g>
</g>
</svg>
