<?xml version="1.0" encoding="utf-8"?>
<!-- Generator: Adobe Illustrator 17.0.0, SVG Export Plug-In . SVG Version: 6.00 Build 0)  -->
<!DOCTYPE svg PUBLIC "-//W3C//DTD SVG 1.1//EN" "http://www.w3.org/Graphics/SVG/1.1/DTD/svg11.dtd">
<svg version="1.1" id="Layer_1" xmlns="http://www.w3.org/2000/svg" xmlns:xlink="http://www.w3.org/1999/xlink" x="0px" y="0px"
	 width="18px" height="18px" viewBox="0 0 18 18" enable-background="new 0 0 18 18" xml:space="preserve">
<rect display="none" fill="#D83535" width="18" height="18"/>
<g>
	<g>
		<path fill="#515251" d="M14.762,7.844h-0.265V5.499C14.497,2.468,12.033,0,8.998,0C5.967,0,3.499,2.464,3.499,5.499
			c0,0.28,0.224,0.503,0.503,0.503c0.28,0,0.503-0.224,0.503-0.503c0-2.476,2.013-4.493,4.493-4.493
			c2.476,0,4.493,2.013,4.493,4.493v2.345H3.238c-0.537,0-0.973,0.436-0.973,0.973v6.267C2.265,16.691,3.574,18,5.18,18h7.639
			c1.607,0,2.915-1.309,2.915-2.915V8.817C15.735,8.28,15.299,7.844,14.762,7.844z M14.728,15.085c0,1.051-0.854,1.909-1.909,1.909
			H5.184c-1.051,0-1.909-0.854-1.909-1.909V8.851h11.453V15.085L14.728,15.085z"/>
		<path fill="#515251" d="M9.002,14.879c1.04,0,1.883-0.846,1.883-1.883c0-1.04-0.846-1.883-1.883-1.883
			c-1.04,0-1.883,0.846-1.883,1.883S7.962,14.879,9.002,14.879z M9.002,12.117c0.485,0,0.876,0.395,0.876,0.876
			s-0.391,0.88-0.876,0.88c-0.485,0-0.876-0.395-0.876-0.876C8.126,12.516,8.517,12.117,9.002,12.117z"/>
	</g>
</g>
</svg>
