<?xml version="1.0" encoding="utf-8"?>
<!-- Generator: Adobe Illustrator 17.0.0, SVG Export Plug-In . SVG Version: 6.00 Build 0)  -->
<!DOCTYPE svg PUBLIC "-//W3C//DTD SVG 1.1//EN" "http://www.w3.org/Graphics/SVG/1.1/DTD/svg11.dtd">
<svg version="1.1" id="Layer_1" xmlns="http://www.w3.org/2000/svg" xmlns:xlink="http://www.w3.org/1999/xlink" x="0px" y="0px"
	 width="18px" height="18px" viewBox="0 0 18 18" enable-background="new 0 0 18 18" xml:space="preserve">
<rect display="none" fill="#D83535" width="18" height="18"/>
<g>
	<g>
		<path fill="#515251" d="M8.935,9.699c0.019,0,0.037,0,0.06,0c0.007,0,0.015,0,0.022,0c0.011,0,0.026,0,0.037,0
			c1.092-0.019,1.976-0.403,2.628-1.137c1.435-1.618,1.197-4.391,1.17-4.656c-0.093-1.987-1.033-2.937-1.808-3.381
			C10.467,0.194,9.792,0.015,9.039,0H9.013C9.009,0,9.002,0,8.998,0H8.976C8.562,0,7.749,0.067,6.97,0.511
			C6.188,0.954,5.233,1.905,5.14,3.906c-0.026,0.265-0.265,3.038,1.17,4.656C6.959,9.296,7.843,9.68,8.935,9.699z M6.135,4
			c0-0.011,0.004-0.022,0.004-0.03c0.123-2.673,2.02-2.96,2.833-2.96h0.015c0.007,0,0.019,0,0.03,0
			c1.006,0.022,2.717,0.432,2.833,2.96c0,0.011,0,0.022,0.004,0.03c0.004,0.026,0.265,2.561-0.921,3.895
			c-0.47,0.529-1.096,0.79-1.92,0.798c-0.007,0-0.011,0-0.019,0l0,0c-0.007,0-0.011,0-0.019,0c-0.82-0.007-1.45-0.268-1.916-0.798
			C5.878,6.568,6.132,4.022,6.135,4z"/>
		<path fill="#515251" d="M16.654,14.299c0-0.004,0-0.007,0-0.011c0-0.03-0.004-0.06-0.004-0.093
			c-0.022-0.738-0.071-2.464-1.689-3.016c-0.011-0.004-0.026-0.007-0.037-0.011c-1.681-0.429-3.079-1.398-3.094-1.409
			c-0.227-0.16-0.54-0.104-0.701,0.123c-0.16,0.227-0.104,0.54,0.123,0.701c0.063,0.045,1.547,1.077,3.403,1.554
			c0.869,0.309,0.965,1.238,0.992,2.087c0,0.034,0,0.063,0.004,0.093c0.004,0.335-0.019,0.854-0.078,1.152
			c-0.604,0.343-2.971,1.528-6.572,1.528c-3.586,0-5.968-1.189-6.575-1.532c-0.06-0.298-0.086-0.816-0.078-1.152
			c0-0.03,0.004-0.06,0.004-0.093c0.026-0.85,0.123-1.778,0.992-2.087c1.856-0.477,3.34-1.513,3.403-1.554
			c0.227-0.16,0.283-0.473,0.123-0.701C6.709,9.65,6.396,9.595,6.169,9.755c-0.015,0.011-1.405,0.98-3.094,1.409
			c-0.015,0.004-0.026,0.007-0.037,0.011c-1.618,0.555-1.666,2.281-1.689,3.016c0,0.034,0,0.063-0.004,0.093
			c0,0.004,0,0.007,0,0.011c-0.004,0.194-0.007,1.189,0.19,1.689c0.037,0.097,0.104,0.179,0.194,0.235
			C1.841,16.293,4.521,18,9.006,18s7.164-1.711,7.276-1.782c0.086-0.056,0.157-0.138,0.194-0.235
			C16.662,15.488,16.658,14.492,16.654,14.299z"/>
	</g>
</g>
</svg>
